<svg viewBox="-6.8870015 -0.86432815 5.781916 1.8444877" xmlns="http://www.w3.org/2000/svg">
<circle cx="-1.1250854" cy="-0.013195515" fill="blue" r="0.01"/>
<circle cx="-6.286174" cy="0.3959794" fill="red" r="0.01"/>
<circle cx="-2.2195897" cy="0.86398673" fill="blue" r="0.01"/>
<circle cx="-2.377758" cy="-0.38723207" fill="blue" r="0.01"/>
<circle cx="-5.972765" cy="0.4095378" fill="red" r="0.01"/>
<circle cx="-5.67391" cy="-0.085553646" fill="red" r="0.01"/>
<circle cx="-6.8670015" cy="-0.09343696" fill="red" r="0.01"/>
<circle cx="-1.8574317" cy="0.96015954" fill="blue" r="0.01"/>
<circle cx="-6.2408605" cy="0.6839714" fill="red" r="0.01"/>
<circle cx="-6.061399" cy="-0.025019407" fill="red" r="0.01"/>
<circle cx="-6.3668118" cy="0.7249429" fill="red" r="0.01"/>
<circle cx="-6.3676333" cy="-0.26183343" fill="red" r="0.01"/>
<circle cx="-2.0996895" cy="-0.058089495" fill="blue" r="0.01"/>
<circle cx="-6.736572" cy="-0.22208738" fill="red" r="0.01"/>
<circle cx="-1.3519211" cy="-0.16188097" fill="blue" r="0.01"/>
<circle cx="-1.252289" cy="-0.32392836" fill="blue" r="0.01"/>
<circle cx="-1.9476879" cy="-0.84432817" fill="blue" r="0.01"/>
<circle cx="-5.5078554" cy="0.7353344" fill="red" r="0.01"/>
<circle cx="-1.7571123" cy="0.7107682" fill="blue" r="0.01"/>
<circle cx="-6.1890965" cy="0.8928745" fill="red" r="0.01"/>
<circle cx="-6.8027964" cy="-0.40737128" fill="red" r="0.01"/>
<circle cx="-2.386302" cy="0.406039" fill="blue" r="0.01"/>
<circle cx="-6.139619" cy="-0.6321919" fill="red" r="0.01"/>
<circle cx="-1.8492925" cy="0.11317301" fill="blue" r="0.01"/>
<circle cx="-1.6608689" cy="0.19934726" fill="blue" r="0.01"/>
<circle cx="-2.9377081" cy="-0.3390367" fill="blue" r="0.01"/>
<circle cx="-1.915487" cy="-0.7123749" fill="blue" r="0.01"/>
<circle cx="-6.603022" cy="0.21926737" fill="red" r="0.01"/>
<circle cx="-6.5923533" cy="-0.44929433" fill="red" r="0.01"/>
<circle cx="-1.8717322" cy="0.3277974" fill="blue" r="0.01"/>
<circle cx="-6.1529427" cy="-0.20214057" fill="red" r="0.01"/>
<circle cx="-1.3815169" cy="0.2528329" fill="blue" r="0.01"/>
<circle cx="-2.2469912" cy="-0.5281844" fill="blue" r="0.01"/>
<circle cx="-1.6198013" cy="-0.716342" fill="blue" r="0.01"/>
<circle cx="-5.4241037" cy="-0.51804113" fill="red" r="0.01"/>
<circle cx="-1.1988807" cy="0.07287407" fill="blue" r="0.01"/>
<circle cx="-2.6158085" cy="-0.40813184" fill="blue" r="0.01"/>
<circle cx="-2.417358" cy="-0.74049854" fill="blue" r="0.01"/>
<circle cx="-2.1116111" cy="-0.5549238" fill="blue" r="0.01"/>
<circle cx="-5.345379" cy="-0.24464893" fill="red" r="0.01"/>
</svg>