<svg viewBox="-1.9818857 -2.8231056 3.9427485 5.7750587" xmlns="http://www.w3.org/2000/svg">
<circle cx="1.4888549" cy="2.0439324" fill="red" r="0.02"/>
<circle cx="0.9418874" cy="1.4758132" fill="red" r="0.02"/>
<circle cx="-1.2937057" cy="-1.3590269" fill="blue" r="0.02"/>
<circle cx="0.89956355" cy="2.6525242" fill="red" r="0.02"/>
<circle cx="0.2289598" cy="1.9142938" fill="red" r="0.02"/>
<circle cx="1.2227964" cy="2.4094663" fill="red" r="0.02"/>
<circle cx="-1.1848142" cy="-2.6945486" fill="blue" r="0.02"/>
<circle cx="0.5967145" cy="1.2568705" fill="red" r="0.02"/>
<circle cx="0.32793045" cy="2.650534" fill="red" r="0.02"/>
<circle cx="1.3409929" cy="1.4060287" fill="red" r="0.02"/>
<circle cx="-0.90062714" cy="-2.6711037" fill="blue" r="0.02"/>
<circle cx="-1.1444082" cy="-1.3946438" fill="blue" r="0.02"/>
<circle cx="-1.1828914" cy="-1.9600158" fill="blue" r="0.02"/>
<circle cx="-0.96687293" cy="-2.7831056" fill="blue" r="0.02"/>
<circle cx="0.62535167" cy="2.0960183" fill="red" r="0.02"/>
<circle cx="1.5030856" cy="2.7311978" fill="red" r="0.02"/>
<circle cx="-0.6935525" cy="-1.243345" fill="blue" r="0.02"/>
<circle cx="-0.98721004" cy="-1.6341801" fill="blue" r="0.02"/>
<circle cx="1.4848859" cy="2.128715" fill="red" r="0.02"/>
<circle cx="1.5622647" cy="2.673117" fill="red" r="0.02"/>
<circle cx="-0.20177197" cy="-1.402036" fill="blue" r="0.02"/>
<circle cx="0.7202437" cy="2.4402192" fill="red" r="0.02"/>
<circle cx="1.725539" cy="1.9802246" fill="red" r="0.02"/>
<circle cx="-1.9418857" cy="-2.26727" fill="blue" r="0.02"/>
<circle cx="-1.0855246" cy="-1.4002094" fill="blue" r="0.02"/>
<circle cx="-1.3985541" cy="-2.4893596" fill="blue" r="0.02"/>
<circle cx="-1.4493535" cy="-2.372586" fill="blue" r="0.02"/>
<circle cx="0.3346448" cy="1.4464889" fill="red" r="0.02"/>
<circle cx="-1.2654996" cy="-2.2514358" fill="blue" r="0.02"/>
<circle cx="0.5122616" cy="1.2292469" fill="red" r="0.02"/>
<circle cx="1.7191637" cy="2.1388667" fill="red" r="0.02"/>
<circle cx="-1.9056544" cy="-1.7043808" fill="blue" r="0.02"/>
<circle cx="0.82458353" cy="2.023658" fill="red" r="0.02"/>
<circle cx="0.21722221" cy="1.8663538" fill="red" r="0.02"/>
<circle cx="-0.6762781" cy="-2.382731" fill="blue" r="0.02"/>
<circle cx="-0.41023755" cy="-2.4833522" fill="blue" r="0.02"/>
<circle cx="-1.703033" cy="-2.2978566" fill="blue" r="0.02"/>
<circle cx="-0.6182213" cy="-2.2165163" fill="blue" r="0.02"/>
<circle cx="1.2134132" cy="1.3845181" fill="red" r="0.02"/>
<circle cx="0.61920214" cy="2.608503" fill="red" r="0.02"/>
<circle cx="-0.31549335" cy="-1.6660943" fill="blue" r="0.02"/>
<circle cx="1.0521965" cy="1.8016398" fill="red" r="0.02"/>
<circle cx="0.6361506" cy="2.2857692" fill="red" r="0.02"/>
<circle cx="1.0657558" cy="1.2656009" fill="red" r="0.02"/>
<circle cx="-1.3527489" cy="-1.5204847" fill="blue" r="0.02"/>
<circle cx="-0.83198714" cy="-2.6809185" fill="blue" r="0.02"/>
<circle cx="-0.2666843" cy="-1.6633925" fill="blue" r="0.02"/>
<circle cx="-1.474236" cy="-1.6994758" fill="blue" r="0.02"/>
<circle cx="1.5425441" cy="2.7517424" fill="red" r="0.02"/>
<circle cx="-1.6303234" cy="-2.269574" fill="blue" r="0.02"/>
<circle cx="1.6302648" cy="2.2126775" fill="red" r="0.02"/>
<circle cx="1.1276863" cy="2.2912884" fill="red" r="0.02"/>
<circle cx="-0.96029806" cy="-2.4142227" fill="blue" r="0.02"/>
<circle cx="0.47703385" cy="1.9778535" fill="red" r="0.02"/>
<circle cx="-1.7702193" cy="-1.9220529" fill="blue" r="0.02"/>
<circle cx="-0.4449582" cy="-2.6634421" fill="blue" r="0.02"/>
<circle cx="1.4228604" cy="1.6437681" fill="red" r="0.02"/>
<circle cx="-1.1997564" cy="-1.5264909" fill="blue" r="0.02"/>
<circle cx="1.1132314" cy="2.8013391" fill="red" r="0.02"/>
<circle cx="1.8394077" cy="2.2146933" fill="red" r="0.02"/>
<circle cx="-1.3635762" cy="-2.3275251" fill="blue" r="0.02"/>
<circle cx="-1.7346344" cy="-2.157678" fill="blue" r="0.02"/>
<circle cx="-0.742558" cy="-1.8144758" fill="blue" r="0.02"/>
<circle cx="-1.3134527" cy="-2.4269335" fill="blue" r="0.02"/>
<circle cx="0.8247204" cy="1.3540263" fill="red" r="0.02"/>
<circle cx="-0.5002303" cy="-1.8310821" fill="blue" r="0.02"/>
<circle cx="-1.0798013" cy="-2.5599182" fill="blue" r="0.02"/>
<circle cx="-0.8895552" cy="-1.7656913" fill="blue" r="0.02"/>
<circle cx="0.6415181" cy="2.7146902" fill="red" r="0.02"/>
<circle cx="0.9248228" cy="1.4186251" fill="red" r="0.02"/>
<circle cx="0.426862" cy="2.1359692" fill="red" r="0.02"/>
<circle cx="0.7056637" cy="1.3766518" fill="red" r="0.02"/>
<circle cx="-0.79061294" cy="-2.106309" fill="blue" r="0.02"/>
<circle cx="1.9208629" cy="1.7962251" fill="red" r="0.02"/>
<circle cx="-0.5709715" cy="-2.3921988" fill="blue" r="0.02"/>
<circle cx="1.2522635" cy="1.7263472" fill="red" r="0.02"/>
<circle cx="-0.49361682" cy="-2.512524" fill="blue" r="0.02"/>
<circle cx="1.7673709" cy="2.3635042" fill="red" r="0.02"/>
<circle cx="1.6898773" cy="2.651872" fill="red" r="0.02"/>
<circle cx="-0.50745463" cy="-2.3056312" fill="blue" r="0.02"/>
<circle cx="1.0629961" cy="1.214225" fill="red" r="0.02"/>
<circle cx="-0.22365642" cy="-1.9113338" fill="blue" r="0.02"/>
<circle cx="-0.8445134" cy="-2.504264" fill="blue" r="0.02"/>
<circle cx="-0.31074786" cy="-1.6790318" fill="blue" r="0.02"/>
<circle cx="-0.42367315" cy="-1.5780747" fill="blue" r="0.02"/>
<circle cx="0.68739605" cy="1.7143536" fill="red" r="0.02"/>
<circle cx="-0.78733706" cy="-1.832861" fill="blue" r="0.02"/>
<circle cx="1.2344906" cy="1.3777189" fill="red" r="0.02"/>
<circle cx="0.89112544" cy="2.9119534" fill="red" r="0.02"/>
<circle cx="-0.49095392" cy="-1.746954" fill="blue" r="0.02"/>
<circle cx="0.49941564" cy="2.0955641" fill="red" r="0.02"/>
<circle cx="1.1990697" cy="1.8419397" fill="red" r="0.02"/>
<circle cx="0.35020685" cy="1.428154" fill="red" r="0.02"/>
<circle cx="-1.5448513" cy="-1.9976594" fill="blue" r="0.02"/>
<circle cx="-1.7165816" cy="-1.9651799" fill="blue" r="0.02"/>
<circle cx="0.02127719" cy="2.1027734" fill="red" r="0.02"/>
<circle cx="0.98710465" cy="1.2677245" fill="red" r="0.02"/>
<circle cx="-1.7906375" cy="-1.6738994" fill="blue" r="0.02"/>
<circle cx="1.1869581" cy="2.1964245" fill="red" r="0.02"/>
<circle cx="-1.1842716" cy="-2.3412614" fill="blue" r="0.02"/>
<line stroke="black" stroke-width="0.01" x1="-1.9818857" x2="1.9608629" y1="0.89967155" y2="-0.99656403"/>
</svg>